<mxfile host="app.diagrams.net" agent="Mozilla/5.0 (Windows NT 10.0; Win64; x64) AppleWebKit/537.36 (KHTML, like Gecko) Chrome/126.0.0.0 Safari/537.36 OPR/112.0.0.0" version="24.7.12">
  <diagram name="PÃ¡gina-1" id="AHQmqDUcSRL_IPxpv9tg">
    <mxGraphModel dx="1161" dy="629" grid="1" gridSize="10" guides="1" tooltips="1" connect="1" arrows="1" fold="1" page="1" pageScale="1" pageWidth="1920" pageHeight="1200" math="0" shadow="0">
      <root>
        <mxCell id="0" />
        <mxCell id="1" parent="0" />
        <mxCell id="SpGZ3E09i2u7JIqRVPBi-1" value="DFD Nivel 0&lt;div&gt;Sistema Punto de Venta&lt;/div&gt;" style="text;html=1;align=center;verticalAlign=middle;whiteSpace=wrap;rounded=0;" vertex="1" parent="1">
          <mxGeometry x="230" y="50" width="150" height="30" as="geometry" />
        </mxCell>
        <mxCell id="SpGZ3E09i2u7JIqRVPBi-9" style="edgeStyle=orthogonalEdgeStyle;rounded=0;orthogonalLoop=1;jettySize=auto;html=1;exitX=0.5;exitY=0;exitDx=0;exitDy=0;entryX=1;entryY=0.5;entryDx=0;entryDy=0;" edge="1" parent="1" source="SpGZ3E09i2u7JIqRVPBi-2" target="SpGZ3E09i2u7JIqRVPBi-7">
          <mxGeometry relative="1" as="geometry" />
        </mxCell>
        <mxCell id="SpGZ3E09i2u7JIqRVPBi-10" value="Dinero por devoluciones" style="edgeLabel;html=1;align=center;verticalAlign=middle;resizable=0;points=[];" vertex="1" connectable="0" parent="SpGZ3E09i2u7JIqRVPBi-9">
          <mxGeometry x="0.0875" y="-4" relative="1" as="geometry">
            <mxPoint as="offset" />
          </mxGeometry>
        </mxCell>
        <mxCell id="SpGZ3E09i2u7JIqRVPBi-13" style="edgeStyle=orthogonalEdgeStyle;rounded=0;orthogonalLoop=1;jettySize=auto;html=1;exitX=0.5;exitY=0;exitDx=0;exitDy=0;entryX=0.75;entryY=1;entryDx=0;entryDy=0;" edge="1" parent="1" source="SpGZ3E09i2u7JIqRVPBi-2" target="SpGZ3E09i2u7JIqRVPBi-7">
          <mxGeometry relative="1" as="geometry" />
        </mxCell>
        <mxCell id="SpGZ3E09i2u7JIqRVPBi-14" value="Efectivo total recibido" style="edgeLabel;html=1;align=center;verticalAlign=middle;resizable=0;points=[];" vertex="1" connectable="0" parent="SpGZ3E09i2u7JIqRVPBi-13">
          <mxGeometry x="0.5273" y="-2" relative="1" as="geometry">
            <mxPoint as="offset" />
          </mxGeometry>
        </mxCell>
        <mxCell id="SpGZ3E09i2u7JIqRVPBi-15" style="edgeStyle=orthogonalEdgeStyle;rounded=0;orthogonalLoop=1;jettySize=auto;html=1;exitX=0;exitY=0.5;exitDx=0;exitDy=0;entryX=0.25;entryY=1;entryDx=0;entryDy=0;" edge="1" parent="1" source="SpGZ3E09i2u7JIqRVPBi-2" target="SpGZ3E09i2u7JIqRVPBi-7">
          <mxGeometry relative="1" as="geometry">
            <Array as="points">
              <mxPoint x="220" y="205" />
              <mxPoint x="220" y="180" />
              <mxPoint x="83" y="180" />
            </Array>
          </mxGeometry>
        </mxCell>
        <mxCell id="SpGZ3E09i2u7JIqRVPBi-16" value="Compras para inventario" style="edgeLabel;html=1;align=center;verticalAlign=middle;resizable=0;points=[];" vertex="1" connectable="0" parent="SpGZ3E09i2u7JIqRVPBi-15">
          <mxGeometry x="-0.1435" y="1" relative="1" as="geometry">
            <mxPoint as="offset" />
          </mxGeometry>
        </mxCell>
        <mxCell id="SpGZ3E09i2u7JIqRVPBi-26" style="edgeStyle=orthogonalEdgeStyle;rounded=0;orthogonalLoop=1;jettySize=auto;html=1;exitX=1;exitY=0.5;exitDx=0;exitDy=0;entryX=0.5;entryY=1;entryDx=0;entryDy=0;" edge="1" parent="1" source="SpGZ3E09i2u7JIqRVPBi-2" target="SpGZ3E09i2u7JIqRVPBi-4">
          <mxGeometry relative="1" as="geometry" />
        </mxCell>
        <mxCell id="SpGZ3E09i2u7JIqRVPBi-27" value="Recibo de venta" style="edgeLabel;html=1;align=center;verticalAlign=middle;resizable=0;points=[];" vertex="1" connectable="0" parent="SpGZ3E09i2u7JIqRVPBi-26">
          <mxGeometry x="-0.2978" relative="1" as="geometry">
            <mxPoint as="offset" />
          </mxGeometry>
        </mxCell>
        <mxCell id="SpGZ3E09i2u7JIqRVPBi-28" style="edgeStyle=orthogonalEdgeStyle;rounded=0;orthogonalLoop=1;jettySize=auto;html=1;exitX=1;exitY=0.5;exitDx=0;exitDy=0;entryX=0.75;entryY=1;entryDx=0;entryDy=0;" edge="1" parent="1" source="SpGZ3E09i2u7JIqRVPBi-2" target="SpGZ3E09i2u7JIqRVPBi-4">
          <mxGeometry relative="1" as="geometry">
            <Array as="points">
              <mxPoint x="390" y="250" />
              <mxPoint x="588" y="250" />
            </Array>
          </mxGeometry>
        </mxCell>
        <mxCell id="SpGZ3E09i2u7JIqRVPBi-30" value="Dinero devuelto por productos" style="edgeLabel;html=1;align=center;verticalAlign=middle;resizable=0;points=[];" vertex="1" connectable="0" parent="SpGZ3E09i2u7JIqRVPBi-28">
          <mxGeometry x="-0.2634" relative="1" as="geometry">
            <mxPoint as="offset" />
          </mxGeometry>
        </mxCell>
        <mxCell id="SpGZ3E09i2u7JIqRVPBi-33" style="edgeStyle=orthogonalEdgeStyle;rounded=0;orthogonalLoop=1;jettySize=auto;html=1;exitX=0;exitY=1;exitDx=0;exitDy=0;entryX=1;entryY=0.5;entryDx=0;entryDy=0;" edge="1" parent="1" source="SpGZ3E09i2u7JIqRVPBi-2" target="SpGZ3E09i2u7JIqRVPBi-6">
          <mxGeometry relative="1" as="geometry" />
        </mxCell>
        <mxCell id="SpGZ3E09i2u7JIqRVPBi-34" value="Informes para administrador" style="edgeLabel;html=1;align=center;verticalAlign=middle;resizable=0;points=[];" vertex="1" connectable="0" parent="SpGZ3E09i2u7JIqRVPBi-33">
          <mxGeometry x="0.0922" y="2" relative="1" as="geometry">
            <mxPoint as="offset" />
          </mxGeometry>
        </mxCell>
        <mxCell id="SpGZ3E09i2u7JIqRVPBi-2" value="Sistema Punto de Venta" style="ellipse;whiteSpace=wrap;html=1;aspect=fixed;fillColor=#e1d5e7;strokeColor=#9673a6;" vertex="1" parent="1">
          <mxGeometry x="260" y="160" width="130" height="130" as="geometry" />
        </mxCell>
        <mxCell id="SpGZ3E09i2u7JIqRVPBi-19" style="edgeStyle=orthogonalEdgeStyle;rounded=0;orthogonalLoop=1;jettySize=auto;html=1;exitX=0;exitY=0.5;exitDx=0;exitDy=0;entryX=1;entryY=0;entryDx=0;entryDy=0;" edge="1" parent="1" source="SpGZ3E09i2u7JIqRVPBi-4" target="SpGZ3E09i2u7JIqRVPBi-2">
          <mxGeometry relative="1" as="geometry" />
        </mxCell>
        <mxCell id="SpGZ3E09i2u7JIqRVPBi-20" value="Productos a comprar" style="edgeLabel;html=1;align=center;verticalAlign=middle;resizable=0;points=[];" vertex="1" connectable="0" parent="SpGZ3E09i2u7JIqRVPBi-19">
          <mxGeometry x="0.003" y="1" relative="1" as="geometry">
            <mxPoint as="offset" />
          </mxGeometry>
        </mxCell>
        <mxCell id="SpGZ3E09i2u7JIqRVPBi-21" style="edgeStyle=orthogonalEdgeStyle;rounded=0;orthogonalLoop=1;jettySize=auto;html=1;exitX=0;exitY=0.5;exitDx=0;exitDy=0;entryX=1;entryY=0;entryDx=0;entryDy=0;" edge="1" parent="1" source="SpGZ3E09i2u7JIqRVPBi-4" target="SpGZ3E09i2u7JIqRVPBi-2">
          <mxGeometry relative="1" as="geometry">
            <Array as="points">
              <mxPoint x="520" y="180" />
              <mxPoint x="371" y="180" />
            </Array>
          </mxGeometry>
        </mxCell>
        <mxCell id="SpGZ3E09i2u7JIqRVPBi-22" value="Pago" style="edgeLabel;html=1;align=center;verticalAlign=middle;resizable=0;points=[];" vertex="1" connectable="0" parent="SpGZ3E09i2u7JIqRVPBi-21">
          <mxGeometry x="0.1025" y="1" relative="1" as="geometry">
            <mxPoint as="offset" />
          </mxGeometry>
        </mxCell>
        <mxCell id="SpGZ3E09i2u7JIqRVPBi-4" value="Cliente" style="rounded=0;whiteSpace=wrap;html=1;fillColor=#f5f5f5;fontColor=#333333;strokeColor=#666666;" vertex="1" parent="1">
          <mxGeometry x="520" y="90" width="90" height="50" as="geometry" />
        </mxCell>
        <mxCell id="SpGZ3E09i2u7JIqRVPBi-17" style="edgeStyle=orthogonalEdgeStyle;rounded=0;orthogonalLoop=1;jettySize=auto;html=1;exitX=0.5;exitY=0;exitDx=0;exitDy=0;entryX=1;entryY=1;entryDx=0;entryDy=0;" edge="1" parent="1" source="SpGZ3E09i2u7JIqRVPBi-5" target="SpGZ3E09i2u7JIqRVPBi-2">
          <mxGeometry relative="1" as="geometry" />
        </mxCell>
        <mxCell id="SpGZ3E09i2u7JIqRVPBi-18" value="Agregar productos a Inventario" style="edgeLabel;html=1;align=center;verticalAlign=middle;resizable=0;points=[];" vertex="1" connectable="0" parent="SpGZ3E09i2u7JIqRVPBi-17">
          <mxGeometry x="-0.1" relative="1" as="geometry">
            <mxPoint as="offset" />
          </mxGeometry>
        </mxCell>
        <mxCell id="SpGZ3E09i2u7JIqRVPBi-5" value="Empleado" style="rounded=0;whiteSpace=wrap;html=1;fillColor=#f5f5f5;fontColor=#333333;strokeColor=#666666;" vertex="1" parent="1">
          <mxGeometry x="500" y="330" width="90" height="50" as="geometry" />
        </mxCell>
        <mxCell id="SpGZ3E09i2u7JIqRVPBi-31" style="edgeStyle=orthogonalEdgeStyle;rounded=0;orthogonalLoop=1;jettySize=auto;html=1;exitX=0.5;exitY=0;exitDx=0;exitDy=0;entryX=0;entryY=0.5;entryDx=0;entryDy=0;" edge="1" parent="1" source="SpGZ3E09i2u7JIqRVPBi-6" target="SpGZ3E09i2u7JIqRVPBi-2">
          <mxGeometry relative="1" as="geometry" />
        </mxCell>
        <mxCell id="SpGZ3E09i2u7JIqRVPBi-32" value="Modificar inventario" style="edgeLabel;html=1;align=center;verticalAlign=middle;resizable=0;points=[];" vertex="1" connectable="0" parent="SpGZ3E09i2u7JIqRVPBi-31">
          <mxGeometry x="0.2012" relative="1" as="geometry">
            <mxPoint as="offset" />
          </mxGeometry>
        </mxCell>
        <mxCell id="SpGZ3E09i2u7JIqRVPBi-6" value="Administrador" style="rounded=0;whiteSpace=wrap;html=1;fillColor=#f5f5f5;fontColor=#333333;strokeColor=#666666;" vertex="1" parent="1">
          <mxGeometry x="70" y="310" width="90" height="50" as="geometry" />
        </mxCell>
        <mxCell id="SpGZ3E09i2u7JIqRVPBi-7" value="Contabilidad" style="rounded=0;whiteSpace=wrap;html=1;fillColor=#f5f5f5;fontColor=#333333;strokeColor=#666666;" vertex="1" parent="1">
          <mxGeometry x="60" y="90" width="90" height="50" as="geometry" />
        </mxCell>
        <mxCell id="SpGZ3E09i2u7JIqRVPBi-24" value="" style="endArrow=classic;html=1;rounded=0;exitX=0;exitY=0.5;exitDx=0;exitDy=0;entryX=1;entryY=0;entryDx=0;entryDy=0;" edge="1" parent="1" source="SpGZ3E09i2u7JIqRVPBi-4" target="SpGZ3E09i2u7JIqRVPBi-2">
          <mxGeometry width="50" height="50" relative="1" as="geometry">
            <mxPoint x="530" y="290" as="sourcePoint" />
            <mxPoint x="580" y="240" as="targetPoint" />
          </mxGeometry>
        </mxCell>
        <mxCell id="SpGZ3E09i2u7JIqRVPBi-25" value="Productos a devolver" style="edgeLabel;html=1;align=center;verticalAlign=middle;resizable=0;points=[];" vertex="1" connectable="0" parent="SpGZ3E09i2u7JIqRVPBi-24">
          <mxGeometry x="0.0199" relative="1" as="geometry">
            <mxPoint as="offset" />
          </mxGeometry>
        </mxCell>
        <mxCell id="SpGZ3E09i2u7JIqRVPBi-35" value="DFD Nivel 1&lt;div&gt;Sistema Punto de Venta: Venta de Producto&lt;/div&gt;" style="text;html=1;align=center;verticalAlign=middle;whiteSpace=wrap;rounded=0;" vertex="1" parent="1">
          <mxGeometry x="985" y="360" width="150" height="30" as="geometry" />
        </mxCell>
        <mxCell id="SpGZ3E09i2u7JIqRVPBi-36" value="Realizar Compra" style="shape=ellipse;html=1;dashed=0;whiteSpace=wrap;aspect=fixed;perimeter=ellipsePerimeter;fillColor=#f8cecc;strokeColor=#b85450;" vertex="1" parent="1">
          <mxGeometry x="915" y="530" width="70" height="70" as="geometry" />
        </mxCell>
        <mxCell id="SpGZ3E09i2u7JIqRVPBi-52" style="edgeStyle=orthogonalEdgeStyle;rounded=0;orthogonalLoop=1;jettySize=auto;html=1;exitX=0.5;exitY=1;exitDx=0;exitDy=0;entryX=0.5;entryY=0;entryDx=0;entryDy=0;" edge="1" parent="1" source="SpGZ3E09i2u7JIqRVPBi-37" target="SpGZ3E09i2u7JIqRVPBi-42">
          <mxGeometry relative="1" as="geometry" />
        </mxCell>
        <mxCell id="SpGZ3E09i2u7JIqRVPBi-53" value="Adicionar pago en caja" style="edgeLabel;html=1;align=center;verticalAlign=middle;resizable=0;points=[];" vertex="1" connectable="0" parent="SpGZ3E09i2u7JIqRVPBi-52">
          <mxGeometry x="-0.0926" y="3" relative="1" as="geometry">
            <mxPoint as="offset" />
          </mxGeometry>
        </mxCell>
        <mxCell id="SpGZ3E09i2u7JIqRVPBi-37" value="Pago de Compra" style="shape=ellipse;html=1;dashed=0;whiteSpace=wrap;aspect=fixed;perimeter=ellipsePerimeter;fillColor=#f8cecc;strokeColor=#b85450;" vertex="1" parent="1">
          <mxGeometry x="1140" y="530" width="70" height="70" as="geometry" />
        </mxCell>
        <mxCell id="SpGZ3E09i2u7JIqRVPBi-57" style="edgeStyle=orthogonalEdgeStyle;rounded=0;orthogonalLoop=1;jettySize=auto;html=1;exitX=1;exitY=0.5;exitDx=0;exitDy=0;entryX=0;entryY=0.75;entryDx=0;entryDy=0;" edge="1" parent="1" target="SpGZ3E09i2u7JIqRVPBi-43">
          <mxGeometry relative="1" as="geometry">
            <mxPoint x="765.0000000000059" y="450.0000000000001" as="sourcePoint" />
          </mxGeometry>
        </mxCell>
        <mxCell id="SpGZ3E09i2u7JIqRVPBi-63" value="Entregar recibo" style="edgeLabel;html=1;align=center;verticalAlign=middle;resizable=0;points=[];" vertex="1" connectable="0" parent="SpGZ3E09i2u7JIqRVPBi-57">
          <mxGeometry x="-0.3101" y="2" relative="1" as="geometry">
            <mxPoint x="30" y="2" as="offset" />
          </mxGeometry>
        </mxCell>
        <mxCell id="SpGZ3E09i2u7JIqRVPBi-38" value="Recibo de Compra" style="shape=ellipse;html=1;dashed=0;whiteSpace=wrap;aspect=fixed;perimeter=ellipsePerimeter;fillColor=#f8cecc;strokeColor=#b85450;" vertex="1" parent="1">
          <mxGeometry x="700" y="415" width="70" height="70" as="geometry" />
        </mxCell>
        <mxCell id="SpGZ3E09i2u7JIqRVPBi-62" style="edgeStyle=orthogonalEdgeStyle;rounded=0;orthogonalLoop=1;jettySize=auto;html=1;exitX=0.5;exitY=0;exitDx=0;exitDy=0;entryX=0.5;entryY=1;entryDx=0;entryDy=0;" edge="1" parent="1" source="SpGZ3E09i2u7JIqRVPBi-39" target="SpGZ3E09i2u7JIqRVPBi-44">
          <mxGeometry relative="1" as="geometry" />
        </mxCell>
        <mxCell id="SpGZ3E09i2u7JIqRVPBi-64" value="Entregar reporte" style="edgeLabel;html=1;align=center;verticalAlign=middle;resizable=0;points=[];" vertex="1" connectable="0" parent="SpGZ3E09i2u7JIqRVPBi-62">
          <mxGeometry x="-0.091" y="2" relative="1" as="geometry">
            <mxPoint as="offset" />
          </mxGeometry>
        </mxCell>
        <mxCell id="SpGZ3E09i2u7JIqRVPBi-39" value="Reporte de ventas" style="shape=ellipse;html=1;dashed=0;whiteSpace=wrap;aspect=fixed;perimeter=ellipsePerimeter;fillColor=#f8cecc;strokeColor=#b85450;" vertex="1" parent="1">
          <mxGeometry x="1325" y="520" width="70" height="70" as="geometry" />
        </mxCell>
        <mxCell id="SpGZ3E09i2u7JIqRVPBi-55" style="edgeStyle=orthogonalEdgeStyle;rounded=0;orthogonalLoop=1;jettySize=auto;html=1;exitX=0;exitY=0.5;exitDx=0;exitDy=0;entryX=0.5;entryY=1;entryDx=0;entryDy=0;" edge="1" parent="1" source="SpGZ3E09i2u7JIqRVPBi-40">
          <mxGeometry relative="1" as="geometry">
            <mxPoint x="730" y="485.0000000000001" as="targetPoint" />
          </mxGeometry>
        </mxCell>
        <mxCell id="SpGZ3E09i2u7JIqRVPBi-72" value="Generar recibo" style="edgeLabel;html=1;align=center;verticalAlign=middle;resizable=0;points=[];" vertex="1" connectable="0" parent="SpGZ3E09i2u7JIqRVPBi-55">
          <mxGeometry x="0.6002" y="2" relative="1" as="geometry">
            <mxPoint as="offset" />
          </mxGeometry>
        </mxCell>
        <mxCell id="SpGZ3E09i2u7JIqRVPBi-40" value="Ventas" style="html=1;dashed=0;whiteSpace=wrap;shape=partialRectangle;right=0;left=0;fillColor=#dae8fc;strokeColor=#6c8ebf;" vertex="1" parent="1">
          <mxGeometry x="970" y="680" width="100" height="30" as="geometry" />
        </mxCell>
        <mxCell id="SpGZ3E09i2u7JIqRVPBi-41" value="Inventario de Producto" style="html=1;dashed=0;whiteSpace=wrap;shape=partialRectangle;right=0;left=0;fillColor=#dae8fc;strokeColor=#6c8ebf;" vertex="1" parent="1">
          <mxGeometry x="785" y="640" width="100" height="30" as="geometry" />
        </mxCell>
        <mxCell id="SpGZ3E09i2u7JIqRVPBi-60" style="edgeStyle=orthogonalEdgeStyle;rounded=0;orthogonalLoop=1;jettySize=auto;html=1;exitX=1;exitY=0.5;exitDx=0;exitDy=0;entryX=0.5;entryY=1;entryDx=0;entryDy=0;" edge="1" parent="1" source="SpGZ3E09i2u7JIqRVPBi-42" target="SpGZ3E09i2u7JIqRVPBi-39">
          <mxGeometry relative="1" as="geometry" />
        </mxCell>
        <mxCell id="SpGZ3E09i2u7JIqRVPBi-61" value="Generar reporte" style="edgeLabel;html=1;align=center;verticalAlign=middle;resizable=0;points=[];" vertex="1" connectable="0" parent="SpGZ3E09i2u7JIqRVPBi-60">
          <mxGeometry x="-0.352" y="2" relative="1" as="geometry">
            <mxPoint as="offset" />
          </mxGeometry>
        </mxCell>
        <mxCell id="SpGZ3E09i2u7JIqRVPBi-42" value="Dinero en caja" style="html=1;dashed=0;whiteSpace=wrap;shape=partialRectangle;right=0;left=0;fillColor=#dae8fc;strokeColor=#6c8ebf;" vertex="1" parent="1">
          <mxGeometry x="1125" y="670" width="100" height="30" as="geometry" />
        </mxCell>
        <mxCell id="SpGZ3E09i2u7JIqRVPBi-46" style="edgeStyle=orthogonalEdgeStyle;rounded=0;orthogonalLoop=1;jettySize=auto;html=1;exitX=0.5;exitY=1;exitDx=0;exitDy=0;entryX=0.5;entryY=0;entryDx=0;entryDy=0;" edge="1" parent="1" source="SpGZ3E09i2u7JIqRVPBi-43" target="SpGZ3E09i2u7JIqRVPBi-36">
          <mxGeometry relative="1" as="geometry" />
        </mxCell>
        <mxCell id="SpGZ3E09i2u7JIqRVPBi-59" value="Productos comprados" style="edgeLabel;html=1;align=center;verticalAlign=middle;resizable=0;points=[];" vertex="1" connectable="0" parent="SpGZ3E09i2u7JIqRVPBi-46">
          <mxGeometry x="0.0389" relative="1" as="geometry">
            <mxPoint as="offset" />
          </mxGeometry>
        </mxCell>
        <mxCell id="SpGZ3E09i2u7JIqRVPBi-47" style="edgeStyle=orthogonalEdgeStyle;rounded=0;orthogonalLoop=1;jettySize=auto;html=1;exitX=0.5;exitY=1;exitDx=0;exitDy=0;" edge="1" parent="1" source="SpGZ3E09i2u7JIqRVPBi-43" target="SpGZ3E09i2u7JIqRVPBi-37">
          <mxGeometry relative="1" as="geometry" />
        </mxCell>
        <mxCell id="SpGZ3E09i2u7JIqRVPBi-43" value="Cliente" style="rounded=1;whiteSpace=wrap;html=1;fillColor=#f5f5f5;fontColor=#333333;strokeColor=#666666;" vertex="1" parent="1">
          <mxGeometry x="1025" y="420" width="90" height="40" as="geometry" />
        </mxCell>
        <mxCell id="SpGZ3E09i2u7JIqRVPBi-44" value="Contabilidad" style="rounded=1;whiteSpace=wrap;html=1;fillColor=#f5f5f5;fontColor=#333333;strokeColor=#666666;" vertex="1" parent="1">
          <mxGeometry x="1315" y="430" width="90" height="40" as="geometry" />
        </mxCell>
        <mxCell id="SpGZ3E09i2u7JIqRVPBi-48" value="" style="endArrow=classic;html=1;rounded=0;exitX=0.5;exitY=1;exitDx=0;exitDy=0;entryX=0.5;entryY=0;entryDx=0;entryDy=0;" edge="1" parent="1" source="SpGZ3E09i2u7JIqRVPBi-36" target="SpGZ3E09i2u7JIqRVPBi-41">
          <mxGeometry width="50" height="50" relative="1" as="geometry">
            <mxPoint x="1045" y="560" as="sourcePoint" />
            <mxPoint x="1095" y="510" as="targetPoint" />
          </mxGeometry>
        </mxCell>
        <mxCell id="SpGZ3E09i2u7JIqRVPBi-49" value="Actualizar inventario" style="edgeLabel;html=1;align=center;verticalAlign=middle;resizable=0;points=[];" vertex="1" connectable="0" parent="SpGZ3E09i2u7JIqRVPBi-48">
          <mxGeometry x="-0.1602" y="-1" relative="1" as="geometry">
            <mxPoint y="1" as="offset" />
          </mxGeometry>
        </mxCell>
        <mxCell id="SpGZ3E09i2u7JIqRVPBi-50" value="" style="endArrow=classic;html=1;rounded=0;exitX=0.5;exitY=1;exitDx=0;exitDy=0;entryX=0.5;entryY=0;entryDx=0;entryDy=0;" edge="1" parent="1" source="SpGZ3E09i2u7JIqRVPBi-36" target="SpGZ3E09i2u7JIqRVPBi-40">
          <mxGeometry width="50" height="50" relative="1" as="geometry">
            <mxPoint x="960" y="610" as="sourcePoint" />
            <mxPoint x="885" y="680" as="targetPoint" />
          </mxGeometry>
        </mxCell>
        <mxCell id="SpGZ3E09i2u7JIqRVPBi-51" value="Actualizar ventas" style="edgeLabel;html=1;align=center;verticalAlign=middle;resizable=0;points=[];" vertex="1" connectable="0" parent="SpGZ3E09i2u7JIqRVPBi-50">
          <mxGeometry x="-0.1602" y="-1" relative="1" as="geometry">
            <mxPoint y="1" as="offset" />
          </mxGeometry>
        </mxCell>
        <mxCell id="SpGZ3E09i2u7JIqRVPBi-65" value="DFD Nivel 1&lt;div&gt;Sistema Punto de Venta: DevoluciÃ³n de Producto&lt;/div&gt;" style="text;html=1;align=center;verticalAlign=middle;whiteSpace=wrap;rounded=0;" vertex="1" parent="1">
          <mxGeometry x="905" y="800" width="150" height="30" as="geometry" />
        </mxCell>
        <mxCell id="SpGZ3E09i2u7JIqRVPBi-76" style="edgeStyle=orthogonalEdgeStyle;rounded=0;orthogonalLoop=1;jettySize=auto;html=1;exitX=0.5;exitY=1;exitDx=0;exitDy=0;entryX=0.5;entryY=0;entryDx=0;entryDy=0;" edge="1" parent="1" source="SpGZ3E09i2u7JIqRVPBi-66" target="SpGZ3E09i2u7JIqRVPBi-68">
          <mxGeometry relative="1" as="geometry" />
        </mxCell>
        <mxCell id="SpGZ3E09i2u7JIqRVPBi-77" value="Productos a devolver" style="edgeLabel;html=1;align=center;verticalAlign=middle;resizable=0;points=[];" vertex="1" connectable="0" parent="SpGZ3E09i2u7JIqRVPBi-76">
          <mxGeometry x="0.206" y="1" relative="1" as="geometry">
            <mxPoint x="18" as="offset" />
          </mxGeometry>
        </mxCell>
        <mxCell id="SpGZ3E09i2u7JIqRVPBi-66" value="Cliente" style="rounded=1;whiteSpace=wrap;html=1;fillColor=#f5f5f5;fontColor=#333333;strokeColor=#666666;" vertex="1" parent="1">
          <mxGeometry x="935" y="880" width="90" height="40" as="geometry" />
        </mxCell>
        <mxCell id="SpGZ3E09i2u7JIqRVPBi-67" value="Contabilidad" style="rounded=1;whiteSpace=wrap;html=1;fillColor=#f5f5f5;fontColor=#333333;strokeColor=#666666;" vertex="1" parent="1">
          <mxGeometry x="1230" y="880" width="90" height="40" as="geometry" />
        </mxCell>
        <mxCell id="SpGZ3E09i2u7JIqRVPBi-84" style="edgeStyle=orthogonalEdgeStyle;rounded=0;orthogonalLoop=1;jettySize=auto;html=1;exitX=0.5;exitY=1;exitDx=0;exitDy=0;entryX=0.5;entryY=0;entryDx=0;entryDy=0;" edge="1" parent="1" source="SpGZ3E09i2u7JIqRVPBi-68" target="SpGZ3E09i2u7JIqRVPBi-73">
          <mxGeometry relative="1" as="geometry" />
        </mxCell>
        <mxCell id="SpGZ3E09i2u7JIqRVPBi-86" value="Actualizar inventarios" style="edgeLabel;html=1;align=center;verticalAlign=middle;resizable=0;points=[];" vertex="1" connectable="0" parent="SpGZ3E09i2u7JIqRVPBi-84">
          <mxGeometry x="0.2443" y="1" relative="1" as="geometry">
            <mxPoint x="-21" as="offset" />
          </mxGeometry>
        </mxCell>
        <mxCell id="SpGZ3E09i2u7JIqRVPBi-85" style="edgeStyle=orthogonalEdgeStyle;rounded=0;orthogonalLoop=1;jettySize=auto;html=1;exitX=0.5;exitY=1;exitDx=0;exitDy=0;entryX=0.5;entryY=0;entryDx=0;entryDy=0;" edge="1" parent="1" source="SpGZ3E09i2u7JIqRVPBi-68" target="SpGZ3E09i2u7JIqRVPBi-74">
          <mxGeometry relative="1" as="geometry" />
        </mxCell>
        <mxCell id="SpGZ3E09i2u7JIqRVPBi-87" value="Actualizar ventas" style="edgeLabel;html=1;align=center;verticalAlign=middle;resizable=0;points=[];" vertex="1" connectable="0" parent="SpGZ3E09i2u7JIqRVPBi-85">
          <mxGeometry x="0.133" y="-2" relative="1" as="geometry">
            <mxPoint x="3" as="offset" />
          </mxGeometry>
        </mxCell>
        <mxCell id="SpGZ3E09i2u7JIqRVPBi-68" value="DevoluciÃ³n producto" style="shape=ellipse;html=1;dashed=0;whiteSpace=wrap;aspect=fixed;perimeter=ellipsePerimeter;fillColor=#f8cecc;strokeColor=#b85450;" vertex="1" parent="1">
          <mxGeometry x="820" y="1000" width="70" height="70" as="geometry" />
        </mxCell>
        <mxCell id="SpGZ3E09i2u7JIqRVPBi-80" style="edgeStyle=orthogonalEdgeStyle;rounded=0;orthogonalLoop=1;jettySize=auto;html=1;exitX=0.5;exitY=0;exitDx=0;exitDy=0;entryX=0.75;entryY=1;entryDx=0;entryDy=0;" edge="1" parent="1" source="SpGZ3E09i2u7JIqRVPBi-69" target="SpGZ3E09i2u7JIqRVPBi-66">
          <mxGeometry relative="1" as="geometry" />
        </mxCell>
        <mxCell id="SpGZ3E09i2u7JIqRVPBi-81" value="Dinero de la devoluciÃ³n" style="edgeLabel;html=1;align=center;verticalAlign=middle;resizable=0;points=[];" vertex="1" connectable="0" parent="SpGZ3E09i2u7JIqRVPBi-80">
          <mxGeometry x="0.1109" relative="1" as="geometry">
            <mxPoint x="8" as="offset" />
          </mxGeometry>
        </mxCell>
        <mxCell id="SpGZ3E09i2u7JIqRVPBi-69" value="DevoluciÃ³n dinero" style="shape=ellipse;html=1;dashed=0;whiteSpace=wrap;aspect=fixed;perimeter=ellipsePerimeter;fillColor=#f8cecc;strokeColor=#b85450;" vertex="1" parent="1">
          <mxGeometry x="1090" y="1010" width="70" height="70" as="geometry" />
        </mxCell>
        <mxCell id="SpGZ3E09i2u7JIqRVPBi-91" style="edgeStyle=orthogonalEdgeStyle;rounded=0;orthogonalLoop=1;jettySize=auto;html=1;exitX=1;exitY=0.5;exitDx=0;exitDy=0;entryX=0;entryY=0.5;entryDx=0;entryDy=0;" edge="1" parent="1" source="SpGZ3E09i2u7JIqRVPBi-70" target="SpGZ3E09i2u7JIqRVPBi-66">
          <mxGeometry relative="1" as="geometry" />
        </mxCell>
        <mxCell id="SpGZ3E09i2u7JIqRVPBi-92" value="Entregar recibo" style="edgeLabel;html=1;align=center;verticalAlign=middle;resizable=0;points=[];" vertex="1" connectable="0" parent="SpGZ3E09i2u7JIqRVPBi-91">
          <mxGeometry x="-0.4255" relative="1" as="geometry">
            <mxPoint x="38" as="offset" />
          </mxGeometry>
        </mxCell>
        <mxCell id="SpGZ3E09i2u7JIqRVPBi-70" value="Recibo de devoluciÃ³n" style="shape=ellipse;html=1;dashed=0;whiteSpace=wrap;aspect=fixed;perimeter=ellipsePerimeter;fillColor=#f8cecc;strokeColor=#b85450;" vertex="1" parent="1">
          <mxGeometry x="650" y="865" width="70" height="70" as="geometry" />
        </mxCell>
        <mxCell id="SpGZ3E09i2u7JIqRVPBi-94" style="edgeStyle=orthogonalEdgeStyle;rounded=0;orthogonalLoop=1;jettySize=auto;html=1;exitX=0.5;exitY=0;exitDx=0;exitDy=0;entryX=0.5;entryY=1;entryDx=0;entryDy=0;" edge="1" parent="1" source="SpGZ3E09i2u7JIqRVPBi-71" target="SpGZ3E09i2u7JIqRVPBi-67">
          <mxGeometry relative="1" as="geometry" />
        </mxCell>
        <mxCell id="SpGZ3E09i2u7JIqRVPBi-95" value="Entregar reporte" style="edgeLabel;html=1;align=center;verticalAlign=middle;resizable=0;points=[];" vertex="1" connectable="0" parent="SpGZ3E09i2u7JIqRVPBi-94">
          <mxGeometry x="-0.2549" relative="1" as="geometry">
            <mxPoint as="offset" />
          </mxGeometry>
        </mxCell>
        <mxCell id="SpGZ3E09i2u7JIqRVPBi-71" value="Reporte de ventas" style="shape=ellipse;html=1;dashed=0;whiteSpace=wrap;aspect=fixed;perimeter=ellipsePerimeter;fillColor=#f8cecc;strokeColor=#b85450;" vertex="1" parent="1">
          <mxGeometry x="1240" y="1050" width="70" height="70" as="geometry" />
        </mxCell>
        <mxCell id="SpGZ3E09i2u7JIqRVPBi-73" value="Inventario de Producto" style="html=1;dashed=0;whiteSpace=wrap;shape=partialRectangle;right=0;left=0;fillColor=#dae8fc;strokeColor=#6c8ebf;" vertex="1" parent="1">
          <mxGeometry x="930" y="1140" width="100" height="30" as="geometry" />
        </mxCell>
        <mxCell id="SpGZ3E09i2u7JIqRVPBi-89" style="edgeStyle=orthogonalEdgeStyle;rounded=0;orthogonalLoop=1;jettySize=auto;html=1;exitX=0;exitY=0.5;exitDx=0;exitDy=0;entryX=0.5;entryY=1;entryDx=0;entryDy=0;" edge="1" parent="1" source="SpGZ3E09i2u7JIqRVPBi-74" target="SpGZ3E09i2u7JIqRVPBi-70">
          <mxGeometry relative="1" as="geometry" />
        </mxCell>
        <mxCell id="SpGZ3E09i2u7JIqRVPBi-90" value="Generar recibo" style="edgeLabel;html=1;align=center;verticalAlign=middle;resizable=0;points=[];" vertex="1" connectable="0" parent="SpGZ3E09i2u7JIqRVPBi-89">
          <mxGeometry x="0.316" y="4" relative="1" as="geometry">
            <mxPoint x="4" y="16" as="offset" />
          </mxGeometry>
        </mxCell>
        <mxCell id="SpGZ3E09i2u7JIqRVPBi-74" value="Ventas" style="html=1;dashed=0;whiteSpace=wrap;shape=partialRectangle;right=0;left=0;fillColor=#dae8fc;strokeColor=#6c8ebf;" vertex="1" parent="1">
          <mxGeometry x="710" y="1140" width="100" height="30" as="geometry" />
        </mxCell>
        <mxCell id="SpGZ3E09i2u7JIqRVPBi-82" style="edgeStyle=orthogonalEdgeStyle;rounded=0;orthogonalLoop=1;jettySize=auto;html=1;exitX=0.5;exitY=0;exitDx=0;exitDy=0;entryX=0.5;entryY=1;entryDx=0;entryDy=0;" edge="1" parent="1" source="SpGZ3E09i2u7JIqRVPBi-75" target="SpGZ3E09i2u7JIqRVPBi-69">
          <mxGeometry relative="1" as="geometry" />
        </mxCell>
        <mxCell id="SpGZ3E09i2u7JIqRVPBi-83" value="Dinero a devolver" style="edgeLabel;html=1;align=center;verticalAlign=middle;resizable=0;points=[];" vertex="1" connectable="0" parent="SpGZ3E09i2u7JIqRVPBi-82">
          <mxGeometry x="-0.208" y="3" relative="1" as="geometry">
            <mxPoint as="offset" />
          </mxGeometry>
        </mxCell>
        <mxCell id="SpGZ3E09i2u7JIqRVPBi-88" style="edgeStyle=orthogonalEdgeStyle;rounded=0;orthogonalLoop=1;jettySize=auto;html=1;exitX=1;exitY=0.5;exitDx=0;exitDy=0;entryX=0.5;entryY=1;entryDx=0;entryDy=0;" edge="1" parent="1" source="SpGZ3E09i2u7JIqRVPBi-75" target="SpGZ3E09i2u7JIqRVPBi-71">
          <mxGeometry relative="1" as="geometry" />
        </mxCell>
        <mxCell id="SpGZ3E09i2u7JIqRVPBi-93" value="Generar reporte" style="edgeLabel;html=1;align=center;verticalAlign=middle;resizable=0;points=[];" vertex="1" connectable="0" parent="SpGZ3E09i2u7JIqRVPBi-88">
          <mxGeometry x="-0.0372" y="-2" relative="1" as="geometry">
            <mxPoint x="-15" y="-2" as="offset" />
          </mxGeometry>
        </mxCell>
        <mxCell id="SpGZ3E09i2u7JIqRVPBi-75" value="Dinero en caja" style="html=1;dashed=0;whiteSpace=wrap;shape=partialRectangle;right=0;left=0;fillColor=#dae8fc;strokeColor=#6c8ebf;" vertex="1" parent="1">
          <mxGeometry x="1075" y="1140" width="100" height="30" as="geometry" />
        </mxCell>
        <mxCell id="SpGZ3E09i2u7JIqRVPBi-96" value="DFD Nivel 1&lt;div&gt;Sistema Punto de Venta: GestiÃ³n de Inventarios&lt;/div&gt;" style="text;html=1;align=center;verticalAlign=middle;whiteSpace=wrap;rounded=0;" vertex="1" parent="1">
          <mxGeometry x="1555" y="700" width="150" height="30" as="geometry" />
        </mxCell>
        <mxCell id="SpGZ3E09i2u7JIqRVPBi-104" style="edgeStyle=orthogonalEdgeStyle;rounded=0;orthogonalLoop=1;jettySize=auto;html=1;exitX=0.5;exitY=1;exitDx=0;exitDy=0;entryX=0.5;entryY=0;entryDx=0;entryDy=0;" edge="1" parent="1" source="SpGZ3E09i2u7JIqRVPBi-97" target="SpGZ3E09i2u7JIqRVPBi-99">
          <mxGeometry relative="1" as="geometry" />
        </mxCell>
        <mxCell id="SpGZ3E09i2u7JIqRVPBi-97" value="Usuario" style="rounded=1;whiteSpace=wrap;html=1;fillColor=#f5f5f5;fontColor=#333333;strokeColor=#666666;" vertex="1" parent="1">
          <mxGeometry x="1585" y="750" width="90" height="40" as="geometry" />
        </mxCell>
        <mxCell id="SpGZ3E09i2u7JIqRVPBi-113" style="edgeStyle=orthogonalEdgeStyle;rounded=0;orthogonalLoop=1;jettySize=auto;html=1;exitX=0.5;exitY=1;exitDx=0;exitDy=0;entryX=0;entryY=0.5;entryDx=0;entryDy=0;" edge="1" parent="1" source="SpGZ3E09i2u7JIqRVPBi-98" target="SpGZ3E09i2u7JIqRVPBi-102">
          <mxGeometry relative="1" as="geometry" />
        </mxCell>
        <mxCell id="SpGZ3E09i2u7JIqRVPBi-119" value="Agregar inventario" style="edgeLabel;html=1;align=center;verticalAlign=middle;resizable=0;points=[];" vertex="1" connectable="0" parent="SpGZ3E09i2u7JIqRVPBi-113">
          <mxGeometry x="-0.0538" y="1" relative="1" as="geometry">
            <mxPoint as="offset" />
          </mxGeometry>
        </mxCell>
        <mxCell id="SpGZ3E09i2u7JIqRVPBi-98" value="Agregar productos" style="shape=ellipse;html=1;dashed=0;whiteSpace=wrap;aspect=fixed;perimeter=ellipsePerimeter;fillColor=#f8cecc;strokeColor=#b85450;" vertex="1" parent="1">
          <mxGeometry x="1450" y="1040" width="70" height="70" as="geometry" />
        </mxCell>
        <mxCell id="SpGZ3E09i2u7JIqRVPBi-105" style="edgeStyle=orthogonalEdgeStyle;rounded=0;orthogonalLoop=1;jettySize=auto;html=1;exitX=0.5;exitY=1;exitDx=0;exitDy=0;entryX=0.5;entryY=0;entryDx=0;entryDy=0;" edge="1" parent="1" source="SpGZ3E09i2u7JIqRVPBi-99" target="SpGZ3E09i2u7JIqRVPBi-103">
          <mxGeometry relative="1" as="geometry" />
        </mxCell>
        <mxCell id="SpGZ3E09i2u7JIqRVPBi-106" value="Tipo de usuario" style="edgeLabel;html=1;align=center;verticalAlign=middle;resizable=0;points=[];" vertex="1" connectable="0" parent="SpGZ3E09i2u7JIqRVPBi-105">
          <mxGeometry x="-0.26" relative="1" as="geometry">
            <mxPoint as="offset" />
          </mxGeometry>
        </mxCell>
        <mxCell id="SpGZ3E09i2u7JIqRVPBi-99" value="ValidaciÃ³n de permisos" style="shape=ellipse;html=1;dashed=0;whiteSpace=wrap;aspect=fixed;perimeter=ellipsePerimeter;fillColor=#f8cecc;strokeColor=#b85450;" vertex="1" parent="1">
          <mxGeometry x="1595" y="820" width="70" height="70" as="geometry" />
        </mxCell>
        <mxCell id="SpGZ3E09i2u7JIqRVPBi-116" style="edgeStyle=orthogonalEdgeStyle;rounded=0;orthogonalLoop=1;jettySize=auto;html=1;exitX=0.5;exitY=1;exitDx=0;exitDy=0;entryX=1;entryY=0.5;entryDx=0;entryDy=0;" edge="1" parent="1" source="SpGZ3E09i2u7JIqRVPBi-100" target="SpGZ3E09i2u7JIqRVPBi-102">
          <mxGeometry relative="1" as="geometry" />
        </mxCell>
        <mxCell id="SpGZ3E09i2u7JIqRVPBi-100" value="Quitar productos" style="shape=ellipse;html=1;dashed=0;whiteSpace=wrap;aspect=fixed;perimeter=ellipsePerimeter;fillColor=#f8cecc;strokeColor=#b85450;" vertex="1" parent="1">
          <mxGeometry x="1700" y="1040" width="70" height="70" as="geometry" />
        </mxCell>
        <mxCell id="SpGZ3E09i2u7JIqRVPBi-117" style="edgeStyle=orthogonalEdgeStyle;rounded=0;orthogonalLoop=1;jettySize=auto;html=1;exitX=0.5;exitY=1;exitDx=0;exitDy=0;entryX=1;entryY=0.5;entryDx=0;entryDy=0;" edge="1" parent="1" source="SpGZ3E09i2u7JIqRVPBi-101" target="SpGZ3E09i2u7JIqRVPBi-102">
          <mxGeometry relative="1" as="geometry" />
        </mxCell>
        <mxCell id="SpGZ3E09i2u7JIqRVPBi-120" value="Actualizar inventario" style="edgeLabel;html=1;align=center;verticalAlign=middle;resizable=0;points=[];" vertex="1" connectable="0" parent="SpGZ3E09i2u7JIqRVPBi-117">
          <mxGeometry x="0.2813" relative="1" as="geometry">
            <mxPoint as="offset" />
          </mxGeometry>
        </mxCell>
        <mxCell id="SpGZ3E09i2u7JIqRVPBi-101" value="Actualizar productos" style="shape=ellipse;html=1;dashed=0;whiteSpace=wrap;aspect=fixed;perimeter=ellipsePerimeter;fillColor=#f8cecc;strokeColor=#b85450;" vertex="1" parent="1">
          <mxGeometry x="1790" y="1040" width="70" height="70" as="geometry" />
        </mxCell>
        <mxCell id="SpGZ3E09i2u7JIqRVPBi-102" value="Inventario de Producto" style="html=1;dashed=0;whiteSpace=wrap;shape=partialRectangle;right=0;left=0;fillColor=#dae8fc;strokeColor=#6c8ebf;" vertex="1" parent="1">
          <mxGeometry x="1590" y="1150" width="100" height="30" as="geometry" />
        </mxCell>
        <mxCell id="SpGZ3E09i2u7JIqRVPBi-107" style="edgeStyle=orthogonalEdgeStyle;rounded=0;orthogonalLoop=1;jettySize=auto;html=1;exitX=0.5;exitY=1;exitDx=0;exitDy=0;entryX=0.5;entryY=0;entryDx=0;entryDy=0;" edge="1" parent="1" source="SpGZ3E09i2u7JIqRVPBi-103" target="SpGZ3E09i2u7JIqRVPBi-98">
          <mxGeometry relative="1" as="geometry" />
        </mxCell>
        <mxCell id="SpGZ3E09i2u7JIqRVPBi-109" value="Usuario empleado" style="edgeLabel;html=1;align=center;verticalAlign=middle;resizable=0;points=[];" vertex="1" connectable="0" parent="SpGZ3E09i2u7JIqRVPBi-107">
          <mxGeometry x="-0.0207" relative="1" as="geometry">
            <mxPoint as="offset" />
          </mxGeometry>
        </mxCell>
        <mxCell id="SpGZ3E09i2u7JIqRVPBi-110" style="edgeStyle=orthogonalEdgeStyle;rounded=0;orthogonalLoop=1;jettySize=auto;html=1;exitX=0.5;exitY=1;exitDx=0;exitDy=0;entryX=0.5;entryY=0;entryDx=0;entryDy=0;" edge="1" parent="1" source="SpGZ3E09i2u7JIqRVPBi-103" target="SpGZ3E09i2u7JIqRVPBi-100">
          <mxGeometry relative="1" as="geometry" />
        </mxCell>
        <mxCell id="SpGZ3E09i2u7JIqRVPBi-111" style="edgeStyle=orthogonalEdgeStyle;rounded=0;orthogonalLoop=1;jettySize=auto;html=1;exitX=0.5;exitY=1;exitDx=0;exitDy=0;entryX=0.5;entryY=0;entryDx=0;entryDy=0;" edge="1" parent="1" source="SpGZ3E09i2u7JIqRVPBi-103" target="SpGZ3E09i2u7JIqRVPBi-101">
          <mxGeometry relative="1" as="geometry" />
        </mxCell>
        <mxCell id="SpGZ3E09i2u7JIqRVPBi-112" value="Usuario administrador" style="edgeLabel;html=1;align=center;verticalAlign=middle;resizable=0;points=[];" vertex="1" connectable="0" parent="SpGZ3E09i2u7JIqRVPBi-111">
          <mxGeometry x="0.1158" y="1" relative="1" as="geometry">
            <mxPoint as="offset" />
          </mxGeometry>
        </mxCell>
        <mxCell id="SpGZ3E09i2u7JIqRVPBi-103" value="Usuarios" style="html=1;dashed=0;whiteSpace=wrap;shape=partialRectangle;right=0;left=0;fillColor=#dae8fc;strokeColor=#6c8ebf;" vertex="1" parent="1">
          <mxGeometry x="1580" y="940" width="100" height="30" as="geometry" />
        </mxCell>
      </root>
    </mxGraphModel>
  </diagram>
</mxfile>
